Coordinates
version=1
nRows=27
nColumns=38
inDegrees=no

Units are S.I. units (second, meters, Newtons, ...)
If the header above contains a line with 'inDegrees', this indicates whether rotational values are in degrees (yes) or radians (no).

endheader
time	pelvis_tilt	pelvis_list	pelvis_rotation	pelvis_tx	pelvis_ty	pelvis_tz	hip_flexion_r	hip_adduction_r	hip_rotation_r	knee_angle_r	ankle_angle_r	subtalar_angle_r	mtp_angle_r	hip_flexion_l	hip_adduction_l	hip_rotation_l	knee_angle_l	ankle_angle_l	subtalar_angle_l	mtp_angle_l	lumbar_extension	lumbar_bending	lumbar_rotation	arm_flex_r	arm_add_r	arm_rot_r	elbow_flex_r	pro_sup_r	wrist_flex_r	wrist_dev_r	arm_flex_l	arm_add_l	arm_rot_l	elbow_flex_l	pro_sup_l	wrist_flex_l	wrist_dev_l
0.95	0.105918	1.49617	1.50238	0.615801	1.43997	1.03256	0.645491	-0.0322857	-0.0537525	1.05364	0.00323981	0	0	0.121853	-0.0566679	-0.296277	0.550227	0.191836	0	0	0.0185957	0.0384835	-0.0520731	-0.14567	-0.325161	0.826969	0.418571	0.958602	0	0	0.157283	-0.351206	0.658126	0.486293	1.3538	0	0
0.96	0.110178	1.49116	1.50196	0.614967	1.44931	1.03161	0.65571	-0.0349056	-0.0589021	1.01776	0.0218906	0	0	0.11552	-0.0559682	-0.291846	0.546466	0.195641	0	0	0.0223996	0.0417167	-0.0561285	-0.149563	-0.321184	0.847492	0.407326	0.958095	0	0	0.165251	-0.35647	0.649493	0.502621	1.36146	0	0
0.97	0.112019	1.48556	1.50348	0.614211	1.45873	1.03052	0.665091	-0.0373017	-0.0640591	0.979699	0.039296	0	0	0.109806	-0.055188	-0.28718	0.54279	0.199499	0	0	0.0271548	0.0448083	-0.0598626	-0.153794	-0.317372	0.866098	0.396649	0.955264	0	0	0.172395	-0.361367	0.640567	0.518372	1.36858	0	0
0.98	0.110511	1.47961	1.50776	0.613554	1.46823	1.02932	0.673478	-0.0391225	-0.0695272	0.939265	0.0540488	0	0	0.104405	-0.054169	-0.282237	0.539116	0.2032	0	0	0.032474	0.0476082	-0.0630963	-0.158708	-0.314102	0.881375	0.387654	0.948858	0	0	0.178607	-0.366124	0.631201	0.534049	1.37482	0	0
0.99	0.10462	1.47313	1.51585	0.612988	1.47779	1.02795	0.681814	-0.0406333	-0.0757461	0.89753	0.0666164	0	0	0.0995866	-0.0529241	-0.277779	0.535549	0.206561	0	0	0.0383959	0.0499767	-0.0654452	-0.164604	-0.311358	0.892317	0.380596	0.941766	0	0	0.184447	-0.37097	0.623547	0.549596	1.37995	0	0
1	0.0984825	1.46592	1.52406	0.612498	1.48746	1.02643	0.689993	-0.0416479	-0.083028	0.854636	0.080362	0	0	0.0958082	-0.0518097	-0.273029	0.532662	0.209929	0	0	0.0453963	0.0521366	-0.0677286	-0.170319	-0.308855	0.903663	0.373664	0.934865	0	0	0.189385	-0.375512	0.615737	0.564634	1.38538	0	0
1.01	0.0941351	1.45801	1.5305	0.612098	1.49722	1.02476	0.697612	-0.0415812	-0.0898489	0.810313	0.0950297	0	0	0.093106	-0.0509972	-0.267894	0.530635	0.213267	0	0	0.0534369	0.0543288	-0.0701024	-0.175955	-0.306155	0.914676	0.366442	0.927424	0	0	0.193359	-0.37974	0.607577	0.579066	1.39092	0	0
1.02	0.0916322	1.44997	1.5353	0.611777	1.50705	1.023	0.704338	-0.0408027	-0.0962469	0.76557	0.108774	0	0	0.0907566	-0.0506471	-0.262956	0.52943	0.217003	0	0	0.0617532	0.0565235	-0.0728038	-0.181148	-0.303272	0.926155	0.358998	0.919887	0	0	0.19614	-0.384108	0.598968	0.593686	1.39696	0	0
1.03	0.0930951	1.4425	1.53671	0.611498	1.51697	1.02126	0.709089	-0.0394318	-0.102256	0.720927	0.12107	0	0	0.0881053	-0.051091	-0.257675	0.529252	0.220852	0	0	0.0695855	0.0590748	-0.076175	-0.185735	-0.30033	0.937929	0.351329	0.912155	0	0	0.198357	-0.388	0.590097	0.607294	1.40305	0	0
1.04	0.098242	1.436	1.53492	0.611259	1.52702	1.0196	0.71126	-0.0374628	-0.106722	0.677271	0.132569	0	0	0.0846727	-0.0523972	-0.253257	0.529648	0.223938	0	0	0.0766667	0.0620381	-0.0801488	-0.189733	-0.297494	0.950017	0.343598	0.904425	0	0	0.200068	-0.391189	0.581156	0.619476	1.40919	0	0
1.05	0.108469	1.43055	1.52858	0.611089	1.53728	1.01805	0.7104	-0.0346967	-0.10849	0.635031	0.143355	0	0	0.0802756	-0.0550123	-0.249999	0.530596	0.226168	0	0	0.0829398	0.0656612	-0.0847426	-0.193175	-0.294625	0.96281	0.335596	0.897143	0	0	0.20111	-0.393631	0.571921	0.630293	1.4152	0	0
1.06	0.122781	1.42668	1.51907	0.610899	1.54774	1.01663	0.706809	-0.0319991	-0.10874	0.596547	0.153022	0	0	0.0746637	-0.0585742	-0.246691	0.532439	0.227774	0	0	0.0877409	0.0698916	-0.0902998	-0.196001	-0.291897	0.97621	0.327571	0.890535	0	0	0.201558	-0.395604	0.562764	0.64007	1.42185	0	0
1.07	0.138883	1.42431	1.50856	0.610649	1.55837	1.01531	0.701429	-0.0295196	-0.107324	0.563302	0.161401	0	0	0.0679215	-0.062649	-0.243517	0.535184	0.228605	0	0	0.0910218	0.0744244	-0.096663	-0.198244	-0.289622	0.989967	0.320112	0.884535	0	0	0.201253	-0.397334	0.553697	0.649505	1.42926	0	0
1.08	0.155687	1.42315	1.49761	0.610396	1.56924	1.01411	0.695157	-0.0268188	-0.104274	0.536053	0.168129	0	0	0.0601136	-0.0671137	-0.241362	0.538672	0.228224	0	0	0.0932013	0.0789412	-0.103355	-0.200244	-0.288012	1.00219	0.313724	0.876961	0	0	0.19954	-0.398517	0.543591	0.65889	1.43471	0	0
1.09	0.172335	1.42304	1.48772	0.610039	1.58022	1.013	0.689329	-0.0247551	-0.101811	0.517619	0.173316	0	0	0.0518925	-0.0716271	-0.239086	0.543306	0.226902	0	0	0.0942375	0.0834459	-0.110609	-0.202039	-0.286883	1.01233	0.308363	0.871407	0	0	0.197837	-0.399502	0.535465	0.667377	1.43922	0	0
1.1	0.193026	1.42373	1.47515	0.60953	1.59126	1.01199	0.683937	-0.0231411	-0.100531	0.507372	0.176434	0	0	0.0440282	-0.0767886	-0.235555	0.549626	0.224888	0	0	0.0944067	0.0885845	-0.119365	-0.202868	-0.286185	1.02352	0.303142	0.866837	0	0	0.195466	-0.399909	0.527041	0.674975	1.4444	0	0
1.11	0.215518	1.42473	1.46115	0.609066	1.60246	1.01104	0.679957	-0.0217017	-0.0996834	0.506371	0.177176	0	0	0.03669	-0.0824525	-0.230996	0.557411	0.222049	0	0	0.0945181	0.0938719	-0.128476	-0.203494	-0.285784	1.03329	0.298377	0.8612	0	0	0.191962	-0.399855	0.518252	0.68185	1.44943	0	0
1.12	0.237581	1.42568	1.44706	0.608787	1.61391	1.01009	0.677241	-0.0198017	-0.0981197	0.513721	0.176277	0	0	0.0299826	-0.0884886	-0.226489	0.566325	0.218118	0	0	0.095135	0.0990523	-0.136634	-0.204276	-0.285325	1.04298	0.293806	0.855919	0	0	0.18743	-0.399268	0.509865	0.687724	1.45328	0	0
1.13	0.259654	1.42641	1.4326	0.608679	1.62566	1.00915	0.675321	-0.0174012	-0.0968833	0.527938	0.174007	0	0	0.0241319	-0.0950243	-0.221974	0.576669	0.213082	0	0	0.0966081	0.10404	-0.14416	-0.205524	-0.285181	1.05104	0.290077	0.849608	0	0	0.181674	-0.398526	0.502292	0.692866	1.45589	0	0
1.14	0.282835	1.42685	1.41686	0.608703	1.63775	1.00821	0.67359	-0.0144394	-0.096938	0.547332	0.170334	0	0	0.0192015	-0.102241	-0.217454	0.58886	0.207188	0	0	0.0991185	0.109002	-0.151248	-0.207428	-0.285389	1.05713	0.287279	0.842148	0	0	0.17464	-0.397393	0.495525	0.697099	1.45716	0	0
1.15	0.306193	1.42718	1.40049	0.608834	1.6502	1.00728	0.671075	-0.0107634	-0.0978237	0.569299	0.164748	0	0	0.0147569	-0.109778	-0.213064	0.60261	0.200446	0	0	0.102591	0.11389	-0.157671	-0.209788	-0.285557	1.06317	0.284635	0.835359	0	0	0.166062	-0.395534	0.489125	0.700496	1.45458	0	0
1.16	0.329017	1.42669	1.38384	0.609068	1.66294	1.00635	0.667614	-0.00615195	-0.0984371	0.588639	0.156094	0	0	0.0117747	-0.11742	-0.208362	0.61808	0.192431	0	0	0.10782	0.118747	-0.163274	-0.21265	-0.285989	1.06801	0.282335	0.827992	0	0	0.15658	-0.393065	0.48434	0.702015	1.44916	0	0
1.17	0.35443	1.42517	1.36331	0.609482	1.67581	1.00555	0.664261	-0.0010065	-0.0991663	0.602439	0.144843	0	0	0.0110906	-0.125645	-0.203108	0.636161	0.182516	0	0	0.114512	0.1243	-0.167569	-0.215361	-0.286671	1.07176	0.279965	0.819907	0	0	0.147651	-0.389787	0.482498	0.699812	1.44406	0	0
1.18	0.389343	1.4232	1.33132	0.610123	1.6887	1.00511	0.661427	0.00514471	-0.100071	0.61182	0.135816	0	0	0.0123349	-0.135414	-0.197736	0.657717	0.170775	0	0	0.121163	0.131855	-0.170213	-0.216889	-0.287475	1.07557	0.276568	0.811717	0	0	0.139729	-0.384905	0.48239	0.693152	1.44006	0	0
1.19	0.43525	1.42215	1.28671	0.610835	1.70156	1.00518	0.657963	0.0124049	-0.102741	0.621296	0.125792	0	0	0.0142826	-0.146491	-0.192662	0.683231	0.157459	0	0	0.125412	0.141449	-0.171319	-0.216382	-0.288431	1.08231	0.271731	0.805814	0	0	0.13285	-0.378298	0.482846	0.683074	1.43693	0	0
1.2	0.485364	1.42171	1.23623	0.611615	1.71436	1.00568	0.653307	0.0210679	-0.106419	0.631817	0.107156	0	0	0.0177961	-0.157814	-0.187885	0.713099	0.141682	0	0	0.127736	0.151833	-0.171375	-0.214194	-0.289622	1.08866	0.266449	0.798802	0	0	0.126032	-0.370669	0.482763	0.670726	1.43443	0	0
1.21	0.531898	1.42121	1.18721	0.612546	1.72712	1.00641	0.648734	0.0300582	-0.111056	0.644367	0.0866357	0	0	0.0237791	-0.168113	-0.182724	0.746917	0.122908	0	0	0.129327	0.161974	-0.169843	-0.210782	-0.291088	1.09539	0.261444	0.791315	0	0	0.118632	-0.362489	0.481928	0.657173	1.433	0	0
